<svg id="Filled" height="512" viewBox="0 0 512 512" width="512" xmlns="http://www.w3.org/2000/svg"><path d="m320 488h-128l16-96v-32h96v32z" fill="#757c80"/><rect fill="#b5b8b9" height="368" rx="16" width="464" x="24" y="24"/><path d="m40 24h432a16 16 0 0 1 16 16v48a0 0 0 0 1 0 0h-464a0 0 0 0 1 0 0v-48a16 16 0 0 1 16-16z" fill="#2b70a8"/><path d="m24 88h464v224h-464z" fill="#a4d4f4"/><path d="m112 312 88-104 40 40 88-96 64 64v96z" fill="#8e9c4c"/><path d="m392 272h40v40h-40z" fill="#a4d4f4"/><path d="m392 200h96v64h-96z" fill="#757c80"/><path d="m24 88h48v224h-48z" fill="#757c80"/><circle cx="128" cy="176" fill="#fc8d36" r="24"/><path d="m24 88h464v32h-464z" fill="#757c80"/><path d="m24 88h160v32h-160z" fill="#fae8d8"/><path d="m392 120h96v96h-96z" fill="#fae8d8"/><path d="m312 232 16.971 50.912 11.313-22.628 22.628-11.313z" fill="#757c80"/><path d="m392 248h40v32h-40z" fill="#b01641"/><path d="m448 248h40v40h-40z" fill="#2b70a8"/><path d="m424 248h32v40h-32z" fill="#fc8d36"/><path d="m448 280h40v32h-40z" fill="#298057"/><path d="m424 280h32v32h-32z" fill="#8e9c4c"/><path d="m472 16h-432a24.028 24.028 0 0 0 -24 24v336a24.028 24.028 0 0 0 24 24h158.556l-13.334 80h-17.222a8 8 0 0 0 0 16h176a8 8 0 0 0 0-16h-17.222l-13.334-80h158.556a24.028 24.028 0 0 0 24-24v-336a24.028 24.028 0 0 0 -24-24zm-432 16h432a8.009 8.009 0 0 1 8 8v40h-448v-40a8.009 8.009 0 0 1 8-8zm-8 80v-16h144v16zm32 16v176h-32v-176zm16 0h304v68.686l-50.343-50.343a8 8 0 0 0 -11.554.251l-82.354 89.841-34.092-34.092a8 8 0 0 0 -11.764.49l-85.604 101.167h-28.289zm368 128v16h-16v-16zm-32 16h-16v-16h16zm-215.509-52.195 33.852 33.852a8 8 0 0 0 11.554-.251l82.354-89.841 55.749 55.749v84.686h-254.751zm199.509 68.195h16v16h-16zm32 0h16v16h-16zm32 0h16v16h-16zm0-16v-16h16v16zm-64-32v-16h80v16zm0-32v-80h80v80zm-208-96v-16h288v16zm118.556 368h-109.112l13.334-80h82.444zm161.444-96h-432a8.009 8.009 0 0 1 -8-8v-56h448v56a8.009 8.009 0 0 1 -8 8z"/><path d="m272 336h-32a8 8 0 0 0 0 16h32a8 8 0 0 0 0-16z"/><circle cx="56" cy="56" r="8"/><circle cx="88" cy="56" r="8"/><circle cx="120" cy="56" r="8"/><path d="m128 208a32 32 0 1 0 -32-32 32.036 32.036 0 0 0 32 32zm0-48a16 16 0 1 1 -16 16 16.019 16.019 0 0 1 16-16z"/><path d="m424 160h32a8 8 0 0 0 0-16h-32a8 8 0 0 0 0 16z"/><path d="m456 176h-32a8 8 0 0 0 0 16h32a8 8 0 0 0 0-16z"/><path d="m365.442 241.381-50.912-16.97a8 8 0 0 0 -10.12 10.119l16.971 50.911a8 8 0 0 0 7.022 5.451c.192.013.381.02.57.02a8 8 0 0 0 7.153-4.423l10.121-20.242 20.242-10.121a8 8 0 0 0 -1.047-14.745zm-28.735 11.748a7.993 7.993 0 0 0 -3.578 3.578l-2.677 5.352-5.8-17.41 17.411 5.8z"/></svg>